<mxfile host="app.diagrams.net" modified="2023-09-05T17:17:21.247Z" agent="Mozilla/5.0 (Macintosh; Intel Mac OS X 10.15; rv:109.0) Gecko/20100101 Firefox/117.0" version="21.7.2" etag="EJxgM9GoezNxTm9FnLFk" type="github">
  <diagram name="Page-1" id="sSw97P18G_vMh1oI3jLb">
    <mxGraphModel>
      <root>
        <mxCell id="0" />
        <mxCell id="1" parent="0" />
      </root>
    </mxGraphModel>
  </diagram>
</mxfile>
